<svg width="290" height="97" viewBox="0 0 290 97" fill="none" xmlns="http://www.w3.org/2000/svg">
<path fill-rule="evenodd" clip-rule="evenodd" d="M54.7027 0.160004C56.7125 0.160004 58.7223 6.46225 60.2937 13.5124L60.4574 14.257C60.5385 14.6305 60.6183 15.0054 60.6968 15.3812L60.8545 16.1457C60.9064 16.4006 60.9577 16.6557 61.0084 16.9106L61.1584 17.6746C61.8001 20.9805 62.3291 24.2147 62.7018 26.8238C63.4084 31.7698 63.8341 37.8393 63.9789 45.0322L63.995 45.9007C64.043 48.7964 62.0157 51.3131 59.1762 51.8829C56.9438 52.3304 54.71 52.7225 52.4748 53.0591L50.2056 50.7883C47.6991 48.2819 43.6354 48.2819 41.129 50.7883C41.0258 50.8915 40.9261 50.9982 40.8302 51.1082L40.6891 51.2756L40.3673 51.6711C38.9729 53.3846 39.2316 55.904 40.9451 57.2983C41.1943 57.5011 41.465 57.6716 41.7509 57.8076L41.9681 57.9032L42.0145 58.0713C42.127 58.4555 42.2861 58.8226 42.4865 59.1647C40.0932 57.8423 37.3776 57.0308 34.4874 56.8772L34.4872 57.85C34.4872 58.4023 34.0395 58.85 33.4872 58.85C32.935 58.85 32.4872 58.4023 32.4872 57.85L32.4875 56.8765C22.812 57.3842 15.0895 65.2642 14.8326 75.0041L15.3322 75.005C15.8845 75.005 16.3322 75.4527 16.3322 76.005C16.3322 76.5573 15.8845 77.005 15.3322 77.005L14.8853 77.0051C15.6231 86.2802 23.1448 93.6443 32.4875 94.1345L32.4872 93.16C32.4872 92.6077 32.935 92.16 33.4872 92.16C34.0395 92.16 34.4872 92.6077 34.4872 93.16L34.4874 94.1338C43.8584 93.6356 51.3943 86.2217 52.0844 76.9029C51.9509 76.9681 51.8009 77.005 51.6422 77.005H50.6422C50.09 77.005 49.6422 76.5573 49.6422 76.005C49.6422 75.4527 50.09 75.005 50.6422 75.005H51.6422C51.8202 75.005 51.9873 75.0515 52.132 75.1329C52.0477 70.808 50.4911 66.8435 47.9426 63.7201C48.1589 63.7927 48.3839 63.8465 48.6157 63.8803L48.8496 63.9074L49.0688 63.9203C49.8775 63.9461 50.6711 63.7261 51.3473 63.2949C53.1262 66.4795 54.1397 70.1497 54.1397 74.0567C54.1397 86.2664 44.2418 96.1642 32.0322 96.1642C19.8225 96.1642 9.92462 86.2664 9.92462 74.0567C9.92462 72.1086 10.1766 70.2192 10.6498 68.4196L10.5546 68.0826L10.5112 67.943L10.4681 67.8101L10.2979 67.3423C9.89926 66.3569 9.50224 66.1556 8.86209 66.1281L8.73915 66.1248L6.96855 66.138C4.81815 66.0866 2.94843 65.5233 0.938139 64.0621C-0.0322881 63.3568 -0.281795 62.0282 0.339886 61.0249L0.43464 60.8839L0.60298 60.6782C1.3744 59.8403 2.66869 59.6954 3.61271 60.3816C4.7467 61.2058 5.67137 61.5166 6.82484 61.5791L7.07568 61.5888L8.79239 61.5746C9.59363 61.5843 10.2093 61.6785 10.6956 61.8818C10.9436 62.1763 11.2236 62.4511 11.5332 62.7031L11.9287 63.0249C12.0844 63.3042 12.2163 63.6295 12.3371 64.0056C12.4284 63.8269 12.522 63.6497 12.618 63.474C13.2198 63.7872 13.895 63.9422 14.581 63.9203L14.8002 63.9074C16.3226 63.7763 17.5905 62.7977 18.1482 61.4573L18.1605 61.4213L18.3139 61.3813C19.9508 60.9114 21.1784 59.6323 21.6353 58.0713L21.6817 57.9032C22.0481 57.7548 22.3933 57.5518 22.7047 57.2983C24.4182 55.904 24.6769 53.3846 23.2825 51.6711L22.9607 51.2756C22.8225 51.1058 22.6757 50.9431 22.5208 50.7883C20.0144 48.2819 15.9507 48.2819 13.4443 50.7883L11.2385 52.9953C9.12711 52.6722 7.01567 52.2999 4.90423 51.8785C2.06264 51.3101 0.0334585 48.7915 0.0820081 45.894C0.209444 38.3229 0.640469 31.9661 1.37509 26.8238C1.7048 24.5158 2.15683 21.7185 2.70092 18.8152L2.84493 18.0557C2.89361 17.8018 2.94297 17.5475 2.99299 17.2928L3.14499 16.5282C4.78691 8.36785 7.08057 0.160004 9.37423 0.160004C11.5962 0.160004 14.2626 3.71517 17.3734 10.8255C22.7061 9.04793 27.5945 8.15914 32.0384 8.15914C36.4824 8.15914 41.3708 9.04793 46.7035 10.8255C49.8143 3.71517 52.4807 0.160004 54.7027 0.160004ZM33.3946 65.8077C33.568 65.8679 33.7043 66.0042 33.7645 66.1776L35.7865 72.0003L46.8355 75.244C47.1534 75.3373 47.3355 75.6707 47.2422 75.9887C47.1805 76.199 47.009 76.3589 46.7949 76.4058L34.4891 79.1022L34.3815 79.1223L34.162 79.1912C33.9266 79.2556 33.6854 79.2963 33.4418 79.3127L33.1977 79.3208C31.1818 79.3208 29.5475 77.6866 29.5475 75.6707C29.5475 75.263 29.6158 74.8582 29.7496 74.473L32.6309 66.1776C32.7396 65.8646 33.0815 65.699 33.3946 65.8077ZM33.4802 73.8836C32.5864 73.8836 31.8618 74.6081 31.8618 75.5019C31.8618 76.3957 32.5864 77.1202 33.4802 77.1202C34.374 77.1202 35.0985 76.3957 35.0985 75.5019C35.0985 74.6081 34.374 73.8836 33.4802 73.8836ZM45.9953 50.9206L46.1605 50.9371C47.25 50.9672 48.3306 51.3979 49.1622 52.2295L51.5605 54.6279C51.6671 54.7344 51.7682 54.8464 51.8633 54.9633C53.4034 56.8559 53.1177 59.6387 51.2251 61.1788L50.8296 61.5006C50.4559 61.8047 49.985 61.9637 49.5034 61.9483C49.4089 61.9453 49.3161 61.9358 49.2255 61.9202L49.1326 61.9213C48.0788 61.8877 47.2414 61.0447 47.1982 60.0079L47.1974 59.8585L47.2068 59.5943C46.9805 59.6064 46.7532 59.5916 46.5296 59.5499L46.6644 59.5713C46.4951 59.5702 46.3259 59.5541 46.1588 59.5229C44.6621 59.2439 43.6562 57.8474 43.8425 56.3565L43.8634 56.2227C43.7442 56.224 43.6257 56.2147 43.5094 56.1952L43.5337 56.1948C43.0521 56.2102 42.5812 56.0512 42.2075 55.7471C41.3936 55.0848 41.2362 53.9147 41.8202 53.0649L41.9186 52.9334L42.2404 52.538C42.3355 52.4211 42.4366 52.3091 42.5432 52.2025C43.4894 51.2563 44.7579 50.829 45.9953 50.9206ZM21.1066 52.2025C21.1618 52.2577 21.2155 52.3143 21.2676 52.3723L21.1323 52.2295C21.2389 52.3361 21.3399 52.448 21.4351 52.5649L21.7569 52.9604C22.4541 53.8172 22.3247 55.0769 21.468 55.7741C21.0943 56.0782 20.6234 56.2371 20.1418 56.2218L19.8062 56.211C20.096 57.7653 19.0709 59.2601 17.5167 59.5499C17.2393 59.6016 16.9561 59.612 16.6764 59.5809L16.4673 59.5499L16.4781 59.8855C16.5133 60.9895 15.6469 61.9131 14.5429 61.9483C14.0613 61.9637 13.5904 61.8047 13.2167 61.5006L12.8212 61.1788C10.9286 59.6387 10.6429 56.8559 12.183 54.9633C12.2782 54.8464 12.3792 54.7344 12.4858 54.6279L13.7568 53.3574C13.7415 53.3553 13.7262 53.3533 13.7108 53.3512L14.8585 52.2025C16.5839 50.4771 19.3813 50.4771 21.1066 52.2025ZM14.707 22.8242C8.08028 22.8242 2.70828 27.5993 2.70828 33.4897C2.70828 39.3801 8.08028 44.1552 14.707 44.1552C21.3337 44.1552 26.7057 39.3801 26.7057 33.4897C26.7057 27.5993 21.3337 22.8242 14.707 22.8242ZM49.3699 22.8242C42.7432 22.8242 37.3712 27.5993 37.3712 33.4897C37.3712 39.3801 42.7432 44.1552 49.3699 44.1552C55.9966 44.1552 61.3686 39.3801 61.3686 33.4897C61.3686 27.5993 55.9966 22.8242 49.3699 22.8242ZM46.7035 25.4906C51.1213 25.4906 54.7027 29.0719 54.7027 33.4897C54.7027 37.9075 51.1213 41.4889 46.7035 41.4889C42.2857 41.4889 38.7044 37.9075 38.7044 33.4897C38.7044 29.0719 42.2857 25.4906 46.7035 25.4906ZM17.3734 25.4906C21.7912 25.4906 25.3725 29.0719 25.3725 33.4897C25.3725 37.9075 21.7912 41.4889 17.3734 41.4889C12.9556 41.4889 9.37423 37.9075 9.37423 33.4897C9.37423 29.0719 12.9556 25.4906 17.3734 25.4906ZM45.3703 28.157C42.4251 28.157 40.0376 30.5445 40.0376 33.4897C40.0376 36.4349 42.4251 38.8225 45.3703 38.8225C48.3155 38.8225 50.7031 36.4349 50.7031 33.4897C50.7031 30.5445 48.3155 28.157 45.3703 28.157ZM18.7065 28.157C15.7613 28.157 13.3738 30.5445 13.3738 33.4897C13.3738 36.4349 15.7613 38.8225 18.7065 38.8225C21.6517 38.8225 24.0393 36.4349 24.0393 33.4897C24.0393 30.5445 21.6517 28.157 18.7065 28.157Z" fill="white"/>
<path d="M79 24V75.9372H86.2593V52.9105H98.4676V46.108H86.2593V30.8024H98.4401V24H79Z" fill="white"/>
<path d="M155.436 46.7503C156.172 47.3577 156.563 48.2692 156.611 49.4842H163.443C163.443 48.0355 163.182 46.6684 162.66 45.3832C162.138 44.098 161.426 42.9881 160.525 42.0534C159.623 41.1187 158.544 40.3942 157.287 39.8801C156.03 39.3661 154.665 39.109 153.195 39.109C151.724 39.109 150.348 39.3544 149.067 39.8451C147.786 40.3358 146.671 41.0485 145.722 41.9832C144.726 42.9179 143.943 44.0279 143.373 45.3131C142.804 46.5983 142.519 47.9886 142.519 49.4842C142.519 51.8676 143.172 53.8891 144.477 55.548C145.781 57.2072 147.572 58.4575 149.85 59.2985L153.337 60.5605C154.713 61.0745 155.662 61.8711 156.184 62.5721C156.706 63.2731 156.967 64.1141 156.967 65.0958C156.967 66.3108 156.551 67.2573 155.721 67.9348C154.891 68.6126 153.954 68.9514 152.91 68.9514C151.534 68.9514 150.573 68.5307 150.028 67.6894C149.482 66.8484 149.138 65.9368 148.996 64.9555H142.164C142.211 66.7315 142.543 68.2853 143.16 69.6172C143.777 70.9494 144.583 72.0593 145.58 72.9473C147.572 74.7697 150.04 75.6812 152.981 75.6812C154.547 75.6812 155.994 75.4009 157.322 74.8399C158.651 74.2792 159.79 73.508 160.738 72.5267C161.688 71.545 162.435 70.4119 162.98 69.1267C163.526 67.8415 163.799 66.4509 163.799 64.9555C163.799 62.8524 163.289 60.9129 162.269 59.1368C161.249 57.3611 159.386 55.7702 156.682 54.7419L152.412 53.0595C151.036 52.5455 150.182 51.9727 149.85 51.3419C149.518 50.711 149.352 50.0684 149.352 49.4141C149.352 48.4794 149.66 47.6498 150.277 46.9256C150.894 46.2011 151.771 45.8388 152.91 45.8388C153.859 45.8388 154.701 46.1427 155.436 46.7503Z" fill="white"/>
<path d="M250.38 39.3782V33.2662L257.64 28.9438V39.3782H262.123V45.0469H257.64V65.6061C257.64 66.4564 257.723 67.1179 257.889 67.5902C258.055 68.0625 258.327 68.4167 258.707 68.6531C259.087 68.8893 259.549 69.0308 260.095 69.0781C260.64 69.1254 261.317 69.1489 262.123 69.1489V75.9514H259.134C257.473 75.9514 256.086 75.6917 254.971 75.1722C253.856 74.6523 252.966 73.9911 252.302 73.1881C251.638 72.3848 251.151 71.4754 250.843 70.4598C250.535 69.4444 250.38 68.464 250.38 67.5194V45.0469H245.667V39.3782H250.38Z" fill="white"/>
<path d="M167.584 24V75.9325H174.837V50.9982C174.837 48.578 176.803 46.6162 179.227 46.6162C180.779 46.6162 182.036 47.8717 182.036 49.4206V75.9325H189.29V47.8266C189.29 43.1565 185.498 39.3709 180.819 39.3709C178.667 39.3709 176.634 39.8839 174.837 40.7941V24H167.584Z" fill="white"/>
<path fill-rule="evenodd" clip-rule="evenodd" d="M208.442 73.9751V75.9467H215.698V24H208.442V41.3449C206.825 40.109 204.803 39.3734 202.624 39.3734C197.399 39.3734 193.079 43.6013 193.079 48.8166V66.5034C193.079 71.7187 197.399 75.9467 202.624 75.9467C204.803 75.9467 206.825 75.2111 208.442 73.9751ZM208.442 50.5429V64.7774C208.378 66.9565 206.588 68.7038 204.39 68.7038C202.151 68.7038 200.336 66.8919 200.336 64.6572V50.6631C200.336 48.4281 202.151 46.6162 204.39 46.6162C206.588 46.6162 208.378 48.3635 208.442 50.5429Z" fill="white"/>
<path d="M226.738 39.3734H219.482V66.5034C219.482 71.7187 223.802 75.9468 229.027 75.9468C231.109 75.9468 233.048 75.2751 234.627 74.1367V75.9468H241.883V39.3734H234.627V65.9736C234.08 67.562 232.57 68.7038 230.792 68.7038C228.554 68.7038 226.738 66.8919 226.738 64.6572V39.3734Z" fill="white"/>
<path d="M281.058 65.9733V39.3734H288.313V80.7108C288.313 86.9457 283.25 92 277.005 92C270.757 92 265.694 86.9457 265.694 80.7108V79.9788H272.951V80.7105C272.951 82.9455 274.766 84.7571 277.005 84.7571C279.244 84.7571 281.058 82.9455 281.058 80.7105V74.1367C279.479 75.2751 277.54 75.9467 275.457 75.9467C270.232 75.9467 265.911 71.7187 265.911 66.5034V39.3734H273.168V64.6572C273.168 66.8919 274.983 68.7038 277.222 68.7038C278.999 68.7038 280.51 67.562 281.058 65.9733Z" fill="white"/>
<path d="M102.251 24H109.51V65.3879C109.51 66.7581 109.76 67.6909 110.258 68.187C110.756 68.6831 111.693 69.0018 113.069 69.1437V75.9461C111.408 75.9461 109.914 75.816 108.585 75.5564C107.257 75.2964 106.118 74.7886 105.169 74.0329C104.22 73.3241 103.497 72.3205 102.999 71.0214C102.5 69.7223 102.251 68.0099 102.251 65.884V24Z" fill="white"/>
<path fill-rule="evenodd" clip-rule="evenodd" d="M123.669 50.0542L117.544 48.6073C118.286 45.2318 119.512 42.8045 121.222 41.3264C122.932 39.8481 125.389 39.109 128.594 39.109C131.447 39.109 133.625 39.5389 135.13 40.3985C136.635 41.2581 137.709 42.4271 138.354 43.9055C138.999 45.3835 139.321 49.7346 139.321 53.6347L139.263 63.9506C139.263 65.8342 139.318 75.6092 139.318 75.6092H133.251L133.225 71.2792C132.072 72.7467 130.836 73.8477 129.517 74.5815C128.198 75.3153 126.796 75.6822 125.311 75.6822C122.829 75.6822 120.797 74.7858 119.214 72.9931C117.632 71.2004 116.84 68.8154 116.84 65.8379C116.84 63.9506 117.163 62.3047 117.808 60.8999C118.452 59.4951 119.361 58.3734 120.533 57.5345C121.706 56.6959 123.582 55.9517 126.161 55.3016C129.287 54.5258 131.466 53.8022 132.697 53.1312C132.697 51.2862 132.575 48.4135 132.331 47.8368C132.086 47.2603 131.637 46.7884 130.983 46.4215C130.328 46.0546 129.405 45.8713 128.213 45.8713C127.001 45.8713 126.049 46.1646 125.355 46.7519C124.661 47.3388 124.1 48.4398 123.669 50.0542ZM132.697 58.8871C131.838 59.2645 130.499 59.7046 128.682 60.2081C126.591 60.7951 125.223 61.4451 124.578 62.1579C123.934 62.871 123.611 63.7936 123.611 64.9258C123.611 66.2048 123.968 67.2795 124.681 68.1496C125.394 69.0197 126.288 69.4549 127.363 69.4549C128.32 69.4549 129.268 69.1035 130.206 68.4012C131.144 67.6987 131.794 66.8654 132.155 65.9007C132.517 64.9363 132.697 63.1853 132.697 60.6483V58.8871Z" fill="white"/>
</svg>
