<svg width="290" height="97" viewBox="0 0 290 97" fill="none" xmlns="http://www.w3.org/2000/svg">
<path fill-rule="evenodd" clip-rule="evenodd" d="M16.1272 26.372C20.0304 26.372 23.1941 29.6201 23.1941 33.6267C23.1941 37.6333 20.0304 40.8814 16.1272 40.8814C12.224 40.8814 9.0604 37.6333 9.0604 33.6267C9.0604 29.6201 12.224 26.372 16.1272 26.372ZM17.4967 29.5247C15.6501 29.5247 14.1565 31.0224 14.1565 32.8635C14.1565 34.7047 15.6548 36.2023 17.4967 36.2023C19.3386 36.2023 20.8369 34.7047 20.8369 32.8635C20.8369 31.0224 19.3433 29.5247 17.4967 29.5247Z" fill="url(#paint0_linear_84_3)"/>
<path fill-rule="evenodd" clip-rule="evenodd" d="M34.8369 71.8321L45.5923 75.0707L45.597 75.0802C45.912 75.1709 46.0837 75.5095 45.9978 75.8195C45.9406 76.0294 45.7736 76.1916 45.5588 76.2393L33.5724 78.9389L33.4675 78.958L33.2527 79.0296C33.0189 79.0868 32.7851 79.1393 32.5513 79.1488H32.3175C30.3516 79.1488 28.7626 77.5176 28.7626 75.5095C28.7626 75.0993 28.8294 74.6987 28.9582 74.3075L31.764 66.0082C31.869 65.6982 32.203 65.5265 32.5036 65.6362L32.5131 65.6458C32.6754 65.703 32.8137 65.8413 32.871 66.013L34.8369 71.8321ZM31.0148 75.3378C31.0148 76.2393 31.7163 76.9595 32.5943 76.9595C33.4722 76.9595 34.1737 76.2393 34.1737 75.3378C34.1737 74.4363 33.4627 73.7161 32.5943 73.7161C31.7258 73.7161 31.0148 74.4363 31.0148 75.3378Z" fill="url(#paint1_linear_84_3)"/>
<path d="M45.7687 59.4115L45.892 59.4298C45.8512 59.4246 45.8101 59.4186 45.7687 59.4115Z" fill="url(#paint2_linear_84_3)"/>
<path d="M42.8257 56.0587C42.8317 56.0586 42.8377 56.0585 42.8437 56.0584H42.8246L42.8257 56.0587Z" fill="url(#paint3_linear_84_3)"/>
<path fill-rule="evenodd" clip-rule="evenodd" d="M46.5466 26.372C42.6434 26.372 39.4798 29.6201 39.4798 33.6267C39.4798 37.6333 42.6434 40.8814 46.5466 40.8814C50.4499 40.8814 53.6135 37.6333 53.6135 33.6267C53.6135 29.6201 50.4499 26.372 46.5466 26.372ZM45.1819 36.2071C43.3401 36.2071 41.8418 34.7094 41.8418 32.8683C41.8418 31.0272 43.3401 29.5295 45.1819 29.5295C47.0238 29.5295 48.5221 31.0272 48.5221 32.8683C48.5221 34.7094 47.0238 36.2071 45.1819 36.2071Z" fill="url(#paint4_linear_84_3)"/>
<path fill-rule="evenodd" clip-rule="evenodd" d="M61.7299 26.6388C62.4266 31.585 62.8417 37.6569 62.9896 44.8448L62.9801 44.8496L62.9992 45.7177C63.0469 48.6177 61.0476 51.1313 58.2514 51.6989C56.1327 52.1377 53.9998 52.5098 51.8764 52.8436L52.1723 53.1441C52.3441 53.3206 52.492 53.4876 52.6208 53.6593C54.7585 56.3494 54.3481 60.313 51.6951 62.5071L51.2847 62.8362C51.0796 63.0031 50.8553 63.1462 50.6215 63.2702C52.3297 66.4182 53.2984 70.0385 53.2984 73.8924C53.2984 86.1028 43.5499 96 31.5301 96C19.5103 96 9.76176 86.1028 9.76176 73.8924C9.76176 71.9416 10.0099 70.0528 10.4823 68.2546L10.3821 67.9159L10.3439 67.7776L10.3057 67.6488L10.1387 67.1766C9.74744 66.1845 9.35139 65.9842 8.72153 65.9651H6.86059C4.74674 65.9174 2.90488 65.3546 0.924642 63.8855C-0.0296899 63.1748 -0.277816 61.8584 0.332956 60.8472L0.423618 60.7089L0.590626 60.499C1.34932 59.6596 2.62812 59.5165 3.55383 60.1985C4.66562 61.0142 5.58178 61.3242 6.71267 61.3957H8.65473C9.44205 61.3957 10.0528 61.4959 10.5252 61.7058C10.5252 61.7058 10.5395 61.7105 10.5634 61.7201C8.64042 59.4402 8.5259 56.0298 10.4393 53.6306C10.5729 53.4685 10.6875 53.3349 10.8067 53.2061C10.8258 53.1823 10.8688 53.1394 10.8688 53.1394L11.1694 52.8341C11.1074 52.8246 11.0692 52.815 11.0692 52.815C8.99352 52.4955 6.91308 52.1139 4.8374 51.6941C2.04121 51.1218 0.0418851 48.6034 0.0896017 45.7129C0.218437 38.1434 0.643114 31.7854 1.36363 26.6388C1.68811 24.3303 2.13187 21.5305 2.67107 18.6305L2.80945 17.8721C2.83331 17.7481 2.85836 17.6205 2.88341 17.4929C2.90846 17.3653 2.93351 17.2377 2.95737 17.1137L3.10529 16.3553C4.71811 8.20868 6.97034 0 9.22733 0C11.4843 0 14.0419 3.55821 17.1053 10.6698C22.3542 8.89074 27.1688 7.99881 31.5492 7.99881C35.9295 7.99881 40.7346 8.89074 45.993 10.6698C49.0564 3.56297 51.6808 0.00476971 53.8662 0C55.8417 0.00953942 57.8219 6.30556 59.3632 13.3552L59.5206 14.0945C59.5612 14.2805 59.6006 14.4677 59.6399 14.6549C59.6793 14.8422 59.7187 15.0294 59.7592 15.2154L59.9167 15.9738C59.9405 16.0978 59.9656 16.2254 59.9906 16.353C60.0157 16.4805 60.0407 16.6081 60.0646 16.7322L60.2125 17.4905C60.8424 20.8007 61.3673 24.0298 61.7299 26.6388ZM14.8913 23.5624C8.75016 23.5624 3.77809 28.0268 3.77809 33.5263C3.77809 39.0258 8.75016 43.4902 14.8913 43.4902C21.0324 43.4902 26.0045 39.0258 26.0045 33.5263C26.0045 28.0268 21.0324 23.5624 14.8913 23.5624ZM12.0188 63.8235C12.1046 63.6423 12.1953 63.4658 12.2907 63.2941C12.2955 63.2893 12.3003 63.2845 12.3003 63.2798C12.0569 63.151 11.8231 63.0031 11.6084 62.8219C11.6084 62.8219 11.6132 62.8362 11.6179 62.8457C11.7754 63.1224 11.9042 63.4419 12.0188 63.8235ZM12.4625 61.0332L12.8538 61.3528V61.3576C13.2212 61.6676 13.6793 61.825 14.1469 61.8059C15.2205 61.7773 16.0651 60.8472 16.0174 59.7454V59.4068L16.2226 59.4354C16.4946 59.4688 16.7666 59.4545 17.0385 59.4068C18.5464 59.1158 19.5484 57.6181 19.2669 56.0775H19.5961C20.0733 56.087 20.5314 55.9296 20.8893 55.6292C21.7243 54.9375 21.8531 53.6783 21.1708 52.8198L20.8606 52.4191C20.7747 52.2999 20.6745 52.1902 20.5696 52.0805L20.7079 52.2188C20.6718 52.1761 20.638 52.1402 20.6017 52.1018C20.5853 52.0844 20.5683 52.0664 20.5505 52.0471L20.5218 52.0566C18.8375 50.3252 16.1224 50.3252 14.438 52.0566L13.3166 53.2061H13.3644L12.1285 54.4749C12.1031 54.5041 12.0774 54.5332 12.0515 54.5626C11.9801 54.6436 11.9075 54.726 11.8374 54.8135C10.3391 56.7119 10.6207 59.4926 12.4625 61.0332ZM49.7912 74.8272H50.7599L50.7646 74.832C50.6596 70.5631 49.147 66.6376 46.6896 63.5516L46.6276 63.4753C45.5588 63.0985 44.6998 62.2638 44.2895 61.2049C43.0053 60.8769 41.9581 60.0275 41.337 58.9261C41.3417 58.935 41.3459 58.9443 41.3501 58.9536C41.3561 58.9668 41.3621 58.9799 41.3692 58.9918C39.0454 57.6706 36.3972 56.8645 33.5819 56.7023V57.6706C33.5819 58.2239 33.1429 58.6722 32.6085 58.6722C32.074 58.6722 31.635 58.2191 31.635 57.6706V56.7023C22.211 57.2079 14.6957 65.0875 14.4523 74.8272H15.4162C15.9506 74.8272 16.3896 75.2756 16.3896 75.8289C16.3896 76.3822 15.9506 76.8305 15.4162 76.8305H14.5C15.2205 86.1076 22.5403 93.4673 31.635 93.9586V92.9903C31.635 92.437 32.074 91.9887 32.6085 91.9887C33.1429 91.9887 33.5819 92.4418 33.5819 92.9903V93.9586C42.6719 93.4577 49.9916 86.1028 50.7074 76.8305H49.7912C49.2568 76.8305 48.8178 76.3822 48.8178 75.8289C48.8178 75.2756 49.2568 74.8272 49.7912 74.8272ZM49.963 61.348L50.3543 61.0285V61.038C52.1961 59.4974 52.4777 56.7071 50.9794 54.8183C50.8935 54.6991 50.7933 54.5894 50.6883 54.4797L48.3502 52.0805C47.5438 51.2553 46.4892 50.8213 45.4299 50.7927L45.2629 50.7736L45.2247 50.7831C44.0175 50.6925 42.7912 51.1122 41.8655 52.0614C41.8401 52.0906 41.8144 52.1198 41.7885 52.1491C41.7171 52.2301 41.6445 52.3125 41.5744 52.4001L41.2643 52.8007L41.1688 52.9295C40.6058 53.7785 40.7632 54.9519 41.5506 55.6101C41.9133 55.9161 42.3643 56.0641 42.8257 56.0587C42.9304 56.087 43.0492 56.087 43.1634 56.087L43.1443 56.2158C42.9677 57.704 43.9412 59.1015 45.4013 59.3829C45.5683 59.4115 45.7305 59.4306 45.8975 59.4306L45.892 59.4298C46.0726 59.4526 46.2491 59.4575 46.432 59.4497V59.8599C46.4701 60.8901 47.2909 61.7392 48.312 61.7678H48.3979C48.4838 61.7869 48.584 61.7964 48.6699 61.7964C49.147 61.8059 49.6003 61.6485 49.963 61.348ZM36.3876 33.45C36.3876 38.9495 41.3597 43.4139 47.5008 43.4139C53.6419 43.4139 58.614 38.9495 58.614 33.45C58.614 27.9505 53.6419 23.4861 47.5008 23.4861C41.3597 23.4861 36.3876 27.9505 36.3876 33.45Z" fill="url(#paint5_linear_84_3)"/>
<path d="M79 24V75.9372H86.2593V52.9105H98.4676V46.108H86.2593V30.8024H98.4401V24H79Z" fill="url(#paint6_linear_84_3)"/>
<path d="M155.436 46.7503C156.172 47.3577 156.563 48.2692 156.611 49.4842H163.443C163.443 48.0355 163.182 46.6684 162.66 45.3832C162.138 44.098 161.426 42.9881 160.525 42.0534C159.623 41.1187 158.544 40.3942 157.287 39.8801C156.03 39.3661 154.665 39.109 153.195 39.109C151.724 39.109 150.348 39.3544 149.067 39.8451C147.786 40.3358 146.671 41.0485 145.722 41.9832C144.726 42.9179 143.943 44.0279 143.373 45.3131C142.804 46.5983 142.519 47.9886 142.519 49.4842C142.519 51.8676 143.172 53.8891 144.477 55.548C145.781 57.2072 147.572 58.4575 149.85 59.2985L153.337 60.5605C154.713 61.0745 155.662 61.8711 156.184 62.5721C156.706 63.2731 156.967 64.1141 156.967 65.0958C156.967 66.3108 156.551 67.2573 155.721 67.9348C154.891 68.6126 153.954 68.9514 152.91 68.9514C151.534 68.9514 150.573 68.5307 150.028 67.6894C149.482 66.8484 149.138 65.9368 148.996 64.9555H142.164C142.211 66.7315 142.543 68.2853 143.16 69.6172C143.777 70.9494 144.583 72.0593 145.58 72.9473C147.572 74.7697 150.04 75.6812 152.981 75.6812C154.547 75.6812 155.994 75.4009 157.322 74.8399C158.651 74.2792 159.79 73.508 160.738 72.5267C161.688 71.545 162.435 70.4119 162.98 69.1267C163.526 67.8415 163.799 66.4509 163.799 64.9555C163.799 62.8524 163.289 60.9129 162.269 59.1368C161.249 57.3611 159.386 55.7702 156.682 54.7419L152.412 53.0595C151.036 52.5455 150.182 51.9727 149.85 51.3419C149.518 50.711 149.352 50.0684 149.352 49.4141C149.352 48.4794 149.66 47.6498 150.277 46.9256C150.894 46.2011 151.771 45.8388 152.91 45.8388C153.859 45.8388 154.701 46.1427 155.436 46.7503Z" fill="url(#paint7_linear_84_3)"/>
<path d="M250.38 39.3782V33.2662L257.64 28.9438V39.3782H262.123V45.0469H257.64V65.6061C257.64 66.4564 257.723 67.1179 257.889 67.5902C258.055 68.0625 258.327 68.4167 258.707 68.6531C259.087 68.8893 259.549 69.0308 260.095 69.0781C260.64 69.1254 261.317 69.1489 262.123 69.1489V75.9514H259.134C257.473 75.9514 256.086 75.6917 254.971 75.1722C253.856 74.6523 252.966 73.9911 252.302 73.1881C251.638 72.3848 251.151 71.4754 250.843 70.4598C250.535 69.4444 250.38 68.464 250.38 67.5194V45.0469H245.667V39.3782H250.38Z" fill="url(#paint8_linear_84_3)"/>
<path d="M167.584 24V75.9325H174.837V50.9982C174.837 48.578 176.803 46.6162 179.227 46.6162C180.779 46.6162 182.036 47.8717 182.036 49.4206V75.9325H189.29V47.8266C189.29 43.1565 185.498 39.3709 180.819 39.3709C178.667 39.3709 176.634 39.8839 174.837 40.7941V24H167.584Z" fill="url(#paint9_linear_84_3)"/>
<path fill-rule="evenodd" clip-rule="evenodd" d="M208.442 73.9751V75.9467H215.698V24H208.442V41.3449C206.825 40.109 204.803 39.3734 202.624 39.3734C197.399 39.3734 193.079 43.6013 193.079 48.8166V66.5034C193.079 71.7187 197.399 75.9467 202.624 75.9467C204.803 75.9467 206.825 75.2111 208.442 73.9751ZM208.442 50.5429V64.7774C208.378 66.9565 206.588 68.7038 204.39 68.7038C202.151 68.7038 200.336 66.8919 200.336 64.6572V50.6631C200.336 48.4281 202.151 46.6162 204.39 46.6162C206.588 46.6162 208.378 48.3635 208.442 50.5429Z" fill="url(#paint10_linear_84_3)"/>
<path d="M226.738 39.3734H219.482V66.5034C219.482 71.7187 223.802 75.9468 229.027 75.9468C231.109 75.9468 233.048 75.2751 234.627 74.1367V75.9468H241.883V39.3734H234.627V65.9736C234.08 67.562 232.57 68.7038 230.792 68.7038C228.554 68.7038 226.738 66.8919 226.738 64.6572V39.3734Z" fill="url(#paint11_linear_84_3)"/>
<path d="M281.058 65.9733V39.3734H288.313V80.7108C288.313 86.9457 283.25 92 277.005 92C270.757 92 265.694 86.9457 265.694 80.7108V79.9788H272.951V80.7105C272.951 82.9455 274.766 84.7571 277.005 84.7571C279.244 84.7571 281.058 82.9455 281.058 80.7105V74.1367C279.479 75.2751 277.54 75.9467 275.457 75.9467C270.232 75.9467 265.911 71.7187 265.911 66.5034V39.3734H273.168V64.6572C273.168 66.8919 274.983 68.7038 277.222 68.7038C278.999 68.7038 280.51 67.562 281.058 65.9733Z" fill="url(#paint12_linear_84_3)"/>
<path d="M102.251 24H109.51V65.3879C109.51 66.7581 109.76 67.6909 110.258 68.187C110.756 68.6831 111.693 69.0018 113.069 69.1437V75.9461C111.408 75.9461 109.914 75.816 108.585 75.5564C107.257 75.2964 106.118 74.7886 105.169 74.0329C104.22 73.3241 103.497 72.3205 102.999 71.0214C102.5 69.7223 102.251 68.0099 102.251 65.884V24Z" fill="url(#paint13_linear_84_3)"/>
<path fill-rule="evenodd" clip-rule="evenodd" d="M123.669 50.0542L117.544 48.6073C118.286 45.2318 119.512 42.8045 121.222 41.3264C122.932 39.8481 125.389 39.109 128.594 39.109C131.447 39.109 133.625 39.5389 135.13 40.3985C136.635 41.2581 137.709 42.4271 138.354 43.9055C138.999 45.3835 139.321 49.7346 139.321 53.6347L139.263 63.9506C139.263 65.8342 139.318 75.6092 139.318 75.6092H133.251L133.225 71.2792C132.072 72.7467 130.836 73.8477 129.517 74.5815C128.198 75.3153 126.796 75.6822 125.311 75.6822C122.829 75.6822 120.797 74.7858 119.214 72.9931C117.632 71.2004 116.84 68.8154 116.84 65.8379C116.84 63.9506 117.163 62.3047 117.808 60.8999C118.452 59.4951 119.361 58.3734 120.533 57.5345C121.706 56.6959 123.582 55.9517 126.161 55.3016C129.287 54.5258 131.466 53.8022 132.697 53.1312C132.697 51.2862 132.575 48.4135 132.331 47.8368C132.086 47.2603 131.637 46.7883 130.983 46.4215C130.328 46.0546 129.405 45.8713 128.213 45.8713C127.001 45.8713 126.049 46.1646 125.355 46.7519C124.661 47.3388 124.1 48.4398 123.669 50.0542ZM132.697 58.8871C131.838 59.2645 130.499 59.7046 128.682 60.2081C126.591 60.7951 125.223 61.4451 124.578 62.1579C123.934 62.871 123.611 63.7936 123.611 64.9258C123.611 66.2048 123.968 67.2795 124.681 68.1496C125.394 69.0197 126.288 69.4549 127.363 69.4549C128.32 69.4549 129.268 69.1035 130.206 68.4012C131.144 67.6987 131.794 66.8654 132.155 65.9007C132.517 64.9363 132.697 63.1853 132.697 60.6483V58.8871Z" fill="url(#paint14_linear_84_3)"/>
<defs>
<linearGradient id="paint0_linear_84_3" x1="-3.50058" y1="65.1361" x2="62.211" y2="22.7579" gradientUnits="userSpaceOnUse">
<stop stop-color="#0019F4"/>
<stop offset="0.405" stop-color="#430AF2"/>
<stop offset="0.837501" stop-color="#7200F1"/>
</linearGradient>
<linearGradient id="paint1_linear_84_3" x1="-3.50058" y1="65.1361" x2="62.211" y2="22.7579" gradientUnits="userSpaceOnUse">
<stop stop-color="#0019F4"/>
<stop offset="0.405" stop-color="#430AF2"/>
<stop offset="0.837501" stop-color="#7200F1"/>
</linearGradient>
<linearGradient id="paint2_linear_84_3" x1="-3.50058" y1="65.1361" x2="62.211" y2="22.7579" gradientUnits="userSpaceOnUse">
<stop stop-color="#0019F4"/>
<stop offset="0.405" stop-color="#430AF2"/>
<stop offset="0.837501" stop-color="#7200F1"/>
</linearGradient>
<linearGradient id="paint3_linear_84_3" x1="-3.50058" y1="65.1361" x2="62.211" y2="22.7579" gradientUnits="userSpaceOnUse">
<stop stop-color="#0019F4"/>
<stop offset="0.405" stop-color="#430AF2"/>
<stop offset="0.837501" stop-color="#7200F1"/>
</linearGradient>
<linearGradient id="paint4_linear_84_3" x1="-3.50058" y1="65.1361" x2="62.211" y2="22.7579" gradientUnits="userSpaceOnUse">
<stop stop-color="#0019F4"/>
<stop offset="0.405" stop-color="#430AF2"/>
<stop offset="0.837501" stop-color="#7200F1"/>
</linearGradient>
<linearGradient id="paint5_linear_84_3" x1="-3.50058" y1="65.1361" x2="62.211" y2="22.7579" gradientUnits="userSpaceOnUse">
<stop stop-color="#0019F4"/>
<stop offset="0.405" stop-color="#430AF2"/>
<stop offset="0.837501" stop-color="#7200F1"/>
</linearGradient>
<linearGradient id="paint6_linear_84_3" x1="84.0028" y1="54.84" x2="289.12" y2="50.8354" gradientUnits="userSpaceOnUse">
<stop stop-color="#0019F4"/>
<stop offset="1" stop-color="#7200F1"/>
</linearGradient>
<linearGradient id="paint7_linear_84_3" x1="84.0028" y1="54.84" x2="289.12" y2="50.8354" gradientUnits="userSpaceOnUse">
<stop stop-color="#0019F4"/>
<stop offset="1" stop-color="#7200F1"/>
</linearGradient>
<linearGradient id="paint8_linear_84_3" x1="84.0028" y1="54.84" x2="289.12" y2="50.8354" gradientUnits="userSpaceOnUse">
<stop stop-color="#0019F4"/>
<stop offset="1" stop-color="#7200F1"/>
</linearGradient>
<linearGradient id="paint9_linear_84_3" x1="84.0028" y1="54.84" x2="289.12" y2="50.8354" gradientUnits="userSpaceOnUse">
<stop stop-color="#0019F4"/>
<stop offset="1" stop-color="#7200F1"/>
</linearGradient>
<linearGradient id="paint10_linear_84_3" x1="84.0028" y1="54.84" x2="289.12" y2="50.8354" gradientUnits="userSpaceOnUse">
<stop stop-color="#0019F4"/>
<stop offset="1" stop-color="#7200F1"/>
</linearGradient>
<linearGradient id="paint11_linear_84_3" x1="84.0028" y1="54.84" x2="289.12" y2="50.8354" gradientUnits="userSpaceOnUse">
<stop stop-color="#0019F4"/>
<stop offset="1" stop-color="#7200F1"/>
</linearGradient>
<linearGradient id="paint12_linear_84_3" x1="84.0028" y1="54.84" x2="289.12" y2="50.8354" gradientUnits="userSpaceOnUse">
<stop stop-color="#0019F4"/>
<stop offset="1" stop-color="#7200F1"/>
</linearGradient>
<linearGradient id="paint13_linear_84_3" x1="84.0028" y1="54.84" x2="289.12" y2="50.8354" gradientUnits="userSpaceOnUse">
<stop stop-color="#0019F4"/>
<stop offset="1" stop-color="#7200F1"/>
</linearGradient>
<linearGradient id="paint14_linear_84_3" x1="84.0028" y1="54.84" x2="289.12" y2="50.8354" gradientUnits="userSpaceOnUse">
<stop stop-color="#0019F4"/>
<stop offset="1" stop-color="#7200F1"/>
</linearGradient>
</defs>
</svg>
